<?xml version="1.0" encoding="UTF-8"?>
<svg xmlns="http://www.w3.org/2000/svg" version="1.1" viewBox="0 0 295.67 343.16">
  <defs>
    <style>
      .cls-1 {
        fill: #fff;
      }
    </style>
  </defs>
  <!-- Generator: Adobe Illustrator 28.7.10, SVG Export Plug-In . SVG Version: 1.2.0 Build 236)  -->
  <g>
    <g id="Layer_1">
      <g>
        <path class="cls-1" d="M295.13,157.56c0,15.33.12,30.67-.02,46-.34,35.29-15.39,63.22-43.1,84.52-20.57,15.81-44.02,23.16-69.94,23.04-24.83-.12-49.66-.07-74.49.04-2.39.01-4.95.58-7.15,1.52-22.18,9.5-44.32,19.09-66.43,28.76-5.27,2.3-10.34,2.62-14.99-.99-4.74-3.67-6.05-8.57-5.1-14.58,2.96-18.8,5.61-37.65,8.24-56.5.21-1.54-.2-3.57-1.1-4.81C6.28,244.03-.33,221.18.01,195.95c.38-27.49.1-54.99.08-82.49C.07,57.86,36.99,12.87,91.62,2.37c7.78-1.5,15.83-2.06,23.77-2.16,21.83-.29,43.66-.24,65.49-.08,35.82.27,66.03,13.34,89.36,40.77,13.61,16,22.19,34.74,23.68,55.77,1.44,20.23,1.23,40.58,1.74,60.88-.18,0-.36,0-.54.01ZM52.6,294.75c10.92-4.71,21.66-9,32.09-13.94,9.04-4.28,18.22-6.08,28.28-5.88,22.98.47,46,.73,68.96-.11,10.59-.39,21.53-2.29,31.53-5.75,27.74-9.59,46.44-37.24,46.6-67.21.14-27.66.18-55.32-.05-82.97-.06-7.6-.51-15.33-2.05-22.74-6.52-31.39-31.16-56.5-66.41-58.79-24.89-1.62-49.95-.97-74.93-.88-12.11.04-24.11,1.49-35.53,6.17-27.84,11.41-45.67,39.35-45.84,72.5-.14,26.66-.06,53.32-.01,79.97.04,20.95,6.86,39.29,21.09,54.84,1.15,1.25,1.95,3.54,1.74,5.2-1.65,13.09-3.58,26.14-5.48,39.59Z"/>
        <path class="cls-1" d="M184.04,224.97c0-12-.06-23.3.11-34.59.02-1,1.36-2.47,2.42-2.9,11.19-4.56,16.26-13.24,16.51-24.86.13-6.11.15-12.41-1.17-18.31-2.43-10.91-12.91-17.04-21.15-12.42-3.58,2.01-7.1,5.97-8.41,9.81-3.4,9.95-5.83,20.26-8.16,30.54-3.31,14.57-6.65,29.07-15.97,41.28-6.88,9.01-16.11,13.3-27.37,14.03-28.48,1.85-43.82-15.51-50.08-34.85-9.53-29.46-8.22-58.28,9.96-84.56,8.48-12.25,20.66-18.14,36.4-17.06,0,11.3.05,22.25-.1,33.19-.01.9-1.21,2.27-2.14,2.58-10.31,3.47-15.32,11.29-16.97,21.36-1.62,9.86-1.97,19.9,1.32,29.53,1.18,3.45,3.31,7.01,5.99,9.43,6.13,5.55,16.61,3.45,19.51-4.4,3.29-8.91,4.77-18.47,7.45-27.63,3.36-11.52,6.24-23.3,10.94-34.28,6.82-15.94,18.62-26.56,37.01-27.32,20.71-.86,36.97,7.37,45.75,26.33,12.57,27.15,12.1,54.74-2.19,81.26-6.24,11.58-16.13,19.79-29.47,22.75-3.05.68-6.24.69-10.19,1.09Z"/>
      </g>
    </g>
  </g>
</svg>