<?xml version="1.0" encoding="UTF-8"?>
<svg xmlns="http://www.w3.org/2000/svg" version="1.1" viewBox="0 0 904.04 343.16">
  <!-- Generator: Adobe Illustrator 28.7.10, SVG Export Plug-In . SVG Version: 1.2.0 Build 236)  -->
  <g>
    <g id="Layer_1">
      <g>
        <path d="M295.13,157.56c0,15.33.12,30.67-.02,46-.34,35.29-15.39,63.22-43.1,84.52-20.57,15.81-44.02,23.16-69.94,23.04-24.83-.12-49.66-.07-74.49.04-2.39.01-4.95.58-7.15,1.52-22.18,9.5-44.32,19.09-66.43,28.76-5.27,2.3-10.34,2.62-14.99-.99-4.74-3.67-6.05-8.57-5.1-14.58,2.96-18.8,5.61-37.65,8.24-56.5.21-1.54-.2-3.57-1.1-4.81C6.28,244.03-.33,221.18.01,195.95c.38-27.49.1-54.99.08-82.49C.07,57.86,36.99,12.87,91.62,2.37c7.78-1.5,15.83-2.06,23.77-2.16,21.83-.29,43.66-.24,65.49-.08,35.82.27,66.03,13.34,89.36,40.77,13.61,16,22.19,34.74,23.68,55.77,1.44,20.23,1.23,40.58,1.74,60.88-.18,0-.36,0-.54.01ZM52.6,294.75c10.92-4.71,21.66-9,32.09-13.94,9.04-4.28,18.22-6.08,28.28-5.88,22.98.47,46,.73,68.96-.11,10.59-.39,21.53-2.29,31.53-5.75,27.74-9.59,46.44-37.24,46.6-67.21.14-27.66.18-55.32-.05-82.97-.06-7.6-.51-15.33-2.05-22.74-6.52-31.39-31.16-56.5-66.41-58.79-24.89-1.62-49.95-.97-74.93-.88-12.11.04-24.11,1.49-35.53,6.17-27.84,11.41-45.67,39.35-45.84,72.5-.14,26.66-.06,53.32-.01,79.97.04,20.95,6.86,39.29,21.09,54.84,1.15,1.25,1.95,3.54,1.74,5.2-1.65,13.09-3.58,26.14-5.48,39.59Z"/>
        <path d="M904.04,228.08c-11.38,0-21.98.11-32.57-.14-1.34-.03-3.02-1.71-3.9-3.05-9.52-14.58-18.91-29.24-28.34-43.87-.34-.53-.75-1.03-1.29-1.76-3.21,3.43-6.49,6.48-9.17,9.99-1.27,1.67-1.9,4.22-1.94,6.39-.19,10.63-.09,21.26-.09,32.17h-29.38V69.02h29.27v86.33c9.27-10.23,17.95-19.81,26.64-29.39,1.79-1.97,3.95-3.73,5.29-5.97,5.3-8.89,13.16-10.82,22.85-9.78,6.69.72,13.51.14,21.46.14-15.56,16.85-30.38,32.91-45.41,49.19,15.44,22.71,30.78,45.29,46.58,68.54Z"/>
        <path d="M742.02,159.04c15.56,22.91,30.92,45.52,46.89,69.04-6.72,0-12.87-.78-18.74.16-11.96,1.92-19.04-2.68-24.66-13.29-6.58-12.41-15.04-23.81-23.04-36.22-3.5,4-6.98,7.69-10.06,11.69-.86,1.12-.74,3.15-.75,4.77-.06,10.79-.03,21.58-.03,32.63h-29.42V69.04h29.16v85.72c5.88-6.45,11.19-12.25,16.47-18.09,7.26-8.02,14.41-16.15,21.8-24.04,1.18-1.26,3.36-2.17,5.1-2.2,10.29-.2,20.58-.1,32.04-.1-15.26,16.61-29.9,32.54-44.76,48.71Z"/>
        <path d="M667.44,176.99h-80.4c-1.29,19.14,15.76,34.73,37.7,27.05,2.72-.95,5.82-2.48,7.38-4.7,2.96-4.23,6.7-4.51,11.14-4.36,6.47.22,12.96.06,19.99.06-1.35,10.06-6.18,17.75-13.23,24.01-9.17,8.14-20.31,11.46-32.38,12.04-13.94.67-27.17-1.6-38.72-9.97-14.2-10.3-21.44-24.67-22.69-41.88-.84-11.6-.61-23.3,3.21-34.52,8.87-26.05,30.05-38,56.04-37.14,29.24.97,46.48,20.6,50.08,43.8,1.27,8.17,1.26,16.53,1.88,25.62ZM587.3,156.9h51.33c-.4-16.44-14.33-25.91-28.96-24.75-13.47,1.07-22.92,11.54-22.37,24.75Z"/>
        <path d="M440.1,110.63h29.75c0,1.9,0,3.51,0,5.13,0,21.65-.06,43.31.05,64.96.06,12.09,4.64,19.56,13.44,22.64,14.32,5.01,29.7-5.62,29.75-20.68.07-22.15.02-44.31.02-66.46,0-1.79,0-3.58,0-5.62h29.63v117.1h-28.38v-12.16c-1.39,1.28-2.15,1.89-2.82,2.59-14.38,14.98-37.68,17.52-55.02,5.96-9.5-6.33-14.77-15.65-15.23-26.63-.97-23.1-.87-46.24-1.18-69.37-.08-5.78-.01-11.56-.01-17.47Z"/>
        <path d="M330.08,193.24h26.27c6.04,13.26,24.09,19.19,37.3,12.19,3.91-2.07,6.49-5.09,6.45-9.81-.05-4.81-2.78-8.01-6.97-9.31-8.8-2.72-17.96-4.38-26.64-7.42-8.03-2.81-16.55-5.61-23.23-10.6-17.73-13.25-14.61-41.32,5.21-53.51,10.16-6.25,21.47-7.87,32.99-7.08,6.99.48,14.21,1.76,20.74,4.24,15.39,5.84,22.53,15.86,24.71,32.83h-26.19c-5.76-12.77-20.74-18-34.01-11.68-4.04,1.92-6.55,4.87-6.64,9.63-.08,4.74,2.67,7.7,6.57,8.98,8.44,2.78,17.07,5.02,25.66,7.33,9.28,2.49,18.46,5.1,26.3,11.05,16.24,12.32,14.13,42.46-6.62,54.02-12.96,7.22-26.85,8-40.99,6.51-12.31-1.29-23.53-5.54-32.03-15.17-5.54-6.28-8.37-13.61-8.87-22.21Z"/>
        <path d="M184.04,224.97c0-12-.06-23.3.11-34.59.02-1,1.36-2.47,2.42-2.9,11.19-4.56,16.26-13.24,16.51-24.86.13-6.11.15-12.41-1.17-18.31-2.43-10.91-12.91-17.04-21.15-12.42-3.58,2.01-7.1,5.97-8.41,9.81-3.4,9.95-5.83,20.26-8.16,30.54-3.31,14.57-6.65,29.07-15.97,41.28-6.88,9.01-16.11,13.3-27.37,14.03-28.48,1.85-43.82-15.51-50.08-34.85-9.53-29.46-8.22-58.28,9.96-84.56,8.48-12.25,20.66-18.14,36.4-17.06,0,11.3.05,22.25-.1,33.19-.01.9-1.21,2.27-2.14,2.58-10.31,3.47-15.32,11.29-16.97,21.36-1.62,9.86-1.97,19.9,1.32,29.53,1.18,3.45,3.31,7.01,5.99,9.43,6.13,5.55,16.61,3.45,19.51-4.4,3.29-8.91,4.77-18.47,7.45-27.63,3.36-11.52,6.24-23.3,10.94-34.28,6.82-15.94,18.62-26.56,37.01-27.32,20.71-.86,36.97,7.37,45.75,26.33,12.57,27.15,12.1,54.74-2.19,81.26-6.24,11.58-16.13,19.79-29.47,22.75-3.05.68-6.24.69-10.19,1.09Z"/>
      </g>
    </g>
  </g>
</svg>